<svg width="19" height="22" viewBox="0 0 19 22" fill="red" xmlns="http://www.w3.org/2000/svg">
<path d="M8.09277 1.23633C8.93184 0.506958 10.1804 0.506985 11.0195 1.23633L18.1846 7.4668C18.719 7.9315 19.001 8.62319 18.9443 9.3291L18.3379 16.8701L18.3105 17.084C18.1231 18.1367 17.2039 18.9209 16.1143 18.9209H15.2178V20.4824L15.2041 20.6172C15.1417 20.922 14.8721 21.1514 14.5488 21.1514C14.2257 21.1511 13.956 20.9219 13.8936 20.6172L13.8799 20.4824V18.9209H4.86426V20.4824L4.85059 20.6172C4.78814 20.922 4.51859 21.1514 4.19531 21.1514C3.87223 21.1511 3.60244 20.9219 3.54004 20.6172L3.52637 20.4824V18.9209H2.99707L2.78125 18.9111C1.78815 18.8154 0.976698 18.0662 0.801758 17.084L0.773438 16.8701L0.166992 9.3291C0.110329 8.62325 0.392416 7.93148 0.926758 7.4668L8.09277 1.23633ZM10.1416 2.24609C9.806 1.95457 9.30626 1.9545 8.9707 2.24609L1.80469 8.47656C1.59108 8.6624 1.47838 8.93946 1.50098 9.22168L2.10742 16.7627C2.1448 17.2259 2.53234 17.5828 2.99707 17.583H6.31641V12.9307C6.31656 11.3296 7.61481 10.0314 9.21582 10.0312H9.93262C11.5337 10.0314 12.8319 11.3296 12.832 12.9307V17.583H16.1143C16.5791 17.583 16.9665 17.226 17.0039 16.7627L17.6104 9.22168C17.633 8.93937 17.5204 8.66241 17.3066 8.47656L10.1416 2.24609ZM9.21582 11.3691C8.35386 11.3693 7.65445 12.0687 7.6543 12.9307V17.583H11.4932V12.9307C11.493 12.0687 10.7946 11.3693 9.93262 11.3691H9.21582ZM9.72754 4.43359C10.5709 4.51926 11.2293 5.23173 11.2295 6.09766L11.2207 6.26855C11.135 7.11197 10.4226 7.77043 9.55664 7.77051L9.38574 7.76172C8.59856 7.68173 7.97254 7.05575 7.89258 6.26855L7.88379 6.09766C7.88395 5.1741 8.63309 4.42499 9.55664 4.4248L9.72754 4.43359ZM9.55664 4.9248C8.90923 4.92499 8.38395 5.45024 8.38379 6.09766C8.38387 6.74514 8.90918 7.27032 9.55664 7.27051C10.2042 7.27043 10.7294 6.74521 10.7295 6.09766C10.7293 5.45017 10.2041 4.92488 9.55664 4.9248Z" fill="#342E34"/>
</svg>
