<svg width="24" height="24" viewBox="0 0 24 24" fill="none" xmlns="http://www.w3.org/2000/svg">
<path d="M11.4431 20.8168C16.6783 20.8168 20.9223 16.5965 20.9223 11.3903C20.9223 6.18425 16.6783 1.96387 11.4431 1.96387C6.20786 1.96387 1.96387 6.18425 1.96387 11.3903C1.96387 16.5965 6.20786 20.8168 11.4431 20.8168Z" stroke="#342E34" stroke-width="1.33816" stroke-linecap="round" stroke-linejoin="round"/>
<path d="M2.69482 15.0179H5.24692C5.92378 15.0179 6.57292 14.7505 7.05153 14.2746C7.53014 13.7986 7.79902 13.1531 7.79902 12.48V10.3047C7.79902 9.63158 8.0679 8.98606 8.54651 8.51011C9.02512 8.03416 9.67426 7.76678 10.3511 7.76678C11.028 7.76678 11.6771 7.49939 12.1557 7.02345C12.6343 6.5475 12.9032 5.90197 12.9032 5.22888V2.06738" stroke="#000000" stroke-width="1.33816" stroke-linecap="round" stroke-linejoin="round"/>
<path d="M20.9193 11.2422C20.1891 10.8654 19.3794 10.6666 18.5568 10.6621H15.4505C14.7737 10.6621 14.1245 10.9295 13.6459 11.4054C13.1673 11.8814 12.8984 12.5269 12.8984 13.2C12.8984 13.8731 13.1673 14.5186 13.6459 14.9946C14.1245 15.4705 14.7737 15.7379 15.4505 15.7379C15.934 15.7379 16.3977 15.9289 16.7395 16.2689C17.0814 16.6088 17.2735 17.0699 17.2735 17.5507V18.8124" stroke="#000000" stroke-width="1.33816" stroke-linecap="round" stroke-linejoin="round"/>
<path d="M10.8535 20.2254C11.0135 19.8666 11.0382 19.432 10.8532 19.0469C10.6683 18.6618 10.4637 18.1116 10.0422 17.9257C9.6207 17.7398 9.15291 17.7041 8.74175 17.8263C8.3306 17.9485 8.00976 18.2187 7.84981 18.5774C7.73557 18.8336 7.5064 19.0266 7.21271 19.1139C6.91903 19.2012 6.5849 19.1757 6.28382 19.0429L5.4937 18.6945" stroke="#000000" stroke-width="1.33816" stroke-linecap="round" stroke-linejoin="round"/>
</svg>
