<svg width="21" height="21" viewBox="0 0 21 21" fill="none" xmlns="http://www.w3.org/2000/svg">
<path d="M9.32422 0C9.69052 0.000288427 10.0416 0.146394 10.3008 0.405273L19.6123 9.7168L19.7041 9.81836C19.9056 10.0645 20.0175 10.3735 20.0176 10.6943C20.0176 11.0611 19.8716 11.4134 19.6123 11.6729L11.6758 19.6123C11.4163 19.8716 11.0641 20.0176 10.6973 20.0176C10.3305 20.0175 9.97914 19.8715 9.71973 19.6123L0.405273 10.3008C0.146394 10.0416 0.000288427 9.69052 0 9.32422V0.633789C0 0.283861 0.283861 0 0.633789 0H9.32422ZM1.26758 9.32324L1.27637 9.36719C1.28216 9.3813 1.29077 9.39427 1.30176 9.40527H1.30078L10.6143 18.7158C10.6361 18.7376 10.6665 18.75 10.6973 18.75C10.7281 18.75 10.7575 18.7376 10.7793 18.7158L18.7158 10.7764C18.7376 10.7545 18.75 10.7252 18.75 10.6943C18.7499 10.6636 18.7376 10.6341 18.7158 10.6123V10.6113L9.40527 1.30078C9.39435 1.28998 9.38114 1.28209 9.36719 1.27637L9.32324 1.26758H1.26758V9.32324ZM4.75879 3.63379C5.38011 3.63379 5.88379 4.13747 5.88379 4.75879C5.88379 5.38011 5.38011 5.88379 4.75879 5.88379C4.13747 5.88379 3.63379 5.38011 3.63379 4.75879C3.63379 4.13747 4.13747 3.63379 4.75879 3.63379ZM4.75879 4.61621C4.68025 4.61621 4.61621 4.68025 4.61621 4.75879C4.61621 4.83732 4.68025 4.90137 4.75879 4.90137C4.81757 4.90137 4.86798 4.86532 4.88965 4.81445L4.90137 4.75879L4.88965 4.70312C4.86798 4.65226 4.81757 4.61621 4.75879 4.61621Z" fill="#342E34"/>
</svg>
